<svg width="17" height="26" viewBox="0 0 17 26" fill="none" xmlns="http://www.w3.org/2000/svg">
<path d="M14.8739 0H2.12394C0.950937 0 0 0.952 0 2.125V23.375C0 24.548 0.950937 25.5 2.12394 25.5H14.8739C16.048 25.5 17 24.548 17 23.375V2.125C17 0.952 16.048 0 14.8739 0ZM5.3125 1.0625H10.625L10.6909 2.125H5.3125V1.0625ZM8.47769 23.9062C7.89119 23.9062 7.41519 23.4313 7.41519 22.8438C7.41519 22.2562 7.89119 21.7812 8.47769 21.7812C9.06525 21.7812 9.54019 22.2562 9.54019 22.8438C9.54019 23.4313 9.06419 23.9062 8.47769 23.9062ZM14.8739 20.1875H2.12394L2.14625 3.1875H14.8739V20.1875Z" fill="black"/>
</svg>
