<svg width="22" height="21" viewBox="0 0 22 21" fill="none" xmlns="http://www.w3.org/2000/svg">
<path d="M10.7251 9.07154e-05C10.6523 0.00120312 10.5809 0.0193063 10.5164 0.0529551L0.716403 5.18627C0.640971 5.22587 0.57782 5.28538 0.533797 5.35832C0.489773 5.43126 0.466557 5.51487 0.466665 5.60007V7.00006C0.466677 7.12382 0.515847 7.24251 0.603361 7.33003C0.690875 7.41754 0.809566 7.46671 0.933329 7.46673H1.39999V8.12024C1.39999 8.68579 1.80333 9.16773 2.33332 9.29693V17.7388H0.979813L1.05729 17.7452C0.482346 17.6484 0 18.1415 0 18.6813V19.9637C0 20.5144 0.43589 21 0.979813 21H20.4403C20.9842 21 21.4201 20.5508 21.4201 20.0111V18.7287C21.4201 18.1889 20.9842 17.7388 20.4403 17.7388H19.1333V9.29693C19.6632 9.16773 20.0666 8.68579 20.0666 8.12024V7.46673H20.5332C20.657 7.46671 20.7757 7.41754 20.8632 7.33003C20.9507 7.24251 20.9999 7.12382 20.9999 7.00006V5.60007C21 5.51487 20.9768 5.43126 20.9328 5.35832C20.8888 5.28538 20.8256 5.22587 20.7502 5.18627L10.9502 0.0529551C10.8808 0.0167266 10.8034 -0.00145297 10.7251 9.07154e-05ZM10.7333 0.994487L20.0666 5.88262V6.5334H19.6783C19.6279 6.52507 19.5765 6.52507 19.5261 6.5334H15.0053C14.9791 6.52902 14.9525 6.52688 14.926 6.52702C14.9034 6.52751 14.8808 6.52964 14.8585 6.5334H13.145C13.0946 6.52507 13.0432 6.52507 12.9928 6.5334H8.47197C8.44577 6.52902 8.41924 6.52688 8.39267 6.52702C8.37006 6.52751 8.34752 6.52964 8.32522 6.5334H6.61169C6.56129 6.52507 6.50987 6.52507 6.45948 6.5334H1.93866C1.91246 6.52902 1.88593 6.52688 1.85937 6.52702C1.83676 6.52751 1.81422 6.52964 1.79192 6.5334H1.39999V5.88262L10.7333 0.994487ZM2.33332 7.46673H6.06664V8.12024C6.06664 8.29826 5.96485 8.40005 5.78682 8.40005H2.61314C2.43512 8.40005 2.33332 8.29826 2.33332 8.12024V7.46673ZM6.99997 7.46673H7.9333V8.12024C7.9333 8.68579 8.33663 9.16773 8.86663 9.29693V17.7388H6.06664V9.29693C6.59663 9.16773 6.99997 8.68579 6.99997 8.12024V7.46673ZM8.86663 7.46673H12.5999V8.12024C12.5999 8.29826 12.4982 8.40005 12.3201 8.40005H9.14644C8.96842 8.40005 8.86663 8.29826 8.86663 8.12024V7.46673ZM13.5333 7.46673H14.4666V8.12024C14.4666 8.68579 14.8699 9.16773 15.3999 9.29693V17.7388H12.5999V9.29693C13.1299 9.16773 13.5333 8.68579 13.5333 8.12024V7.46673ZM15.3999 7.46673H19.1333V8.12024C19.1333 8.29826 19.0315 8.40005 18.8534 8.40005H15.6797C15.5017 8.40005 15.3999 8.29826 15.3999 8.12024V7.46673ZM3.26665 9.33338H5.13331V17.7333H3.26665V9.33338ZM9.79996 9.33338H11.6666V17.7333H9.79996V9.33338ZM16.3333 9.33338H18.1999V17.7333H16.3333V9.33338ZM0.926038 18.6685C0.943878 18.6707 0.961833 18.672 0.979813 18.6721H20.4403C20.4563 18.6721 20.4868 18.6981 20.4868 18.7287V20.0111C20.4868 20.0416 20.4564 20.0667 20.4403 20.0667H0.979813C0.963739 20.0667 0.933329 20.0775 0.933329 19.9637V18.6813C0.933329 18.6705 0.929285 18.6703 0.926038 18.6685Z" fill="black"/>
</svg>
