<svg width="27" height="22" viewBox="0 0 27 22" fill="none" xmlns="http://www.w3.org/2000/svg">
<path d="M25.6296 0H1.37041C0.61476 0 0 0.61476 0 1.37041V16.2991C0 17.0548 0.61476 17.6695 1.37041 17.6695H9.33045V20.527H7.4352C7.1936 20.527 6.99784 20.7228 6.99784 20.9644C6.99784 21.2059 7.1936 21.4017 7.4352 21.4017H19.5648C19.8064 21.4017 20.0022 21.2059 20.0022 20.9644C20.0022 20.7228 19.8064 20.527 19.5648 20.527H17.6695V17.6695H25.6296C26.3852 17.6695 27 17.0548 27 16.2991V1.37041C27 0.61476 26.3852 0 25.6296 0ZM16.7948 20.527H10.2052V17.6695H16.7948V20.527ZM26.1253 16.2991C26.1253 16.5725 25.9029 16.7948 25.6296 16.7948H1.37041C1.09709 16.7948 0.87473 16.5725 0.87473 16.2991V1.37041C0.87473 1.09709 1.09709 0.87473 1.37041 0.87473H25.6296C25.9029 0.87473 26.1253 1.09709 26.1253 1.37041V16.2991Z" fill="black"/>
<path d="M24.6965 1.86621H2.30345C2.06185 1.86621 1.86609 2.06203 1.86609 2.30358V15.3662C1.86609 15.6078 2.06185 15.8036 2.30345 15.8036H24.6965C24.9381 15.8036 25.1339 15.6078 25.1339 15.3662V2.30358C25.1339 2.06203 24.9381 1.86621 24.6965 1.86621ZM24.2592 14.9288H2.74082V2.74094H24.2592V14.9288Z" fill="black"/>
<path d="M8.83468 13.4704C9.86768 13.4704 10.8226 13.1305 11.5942 12.5571C11.6015 12.5523 11.6093 12.5485 11.6164 12.5432C11.6301 12.5329 11.6428 12.5218 11.6549 12.5103C12.758 11.6621 13.4707 10.3302 13.4707 8.83431C13.4707 6.278 11.391 4.19824 8.83468 4.19824C6.27831 4.19824 4.19861 6.278 4.19861 8.83431C4.19861 11.3906 6.27831 13.4704 8.83468 13.4704ZM5.09958 9.27168H8.616L10.7252 12.0839C10.1693 12.4086 9.52362 12.5957 8.83468 12.5957C6.9087 12.5957 5.3171 11.1403 5.09958 9.27168ZM12.596 8.83431C12.596 9.90539 12.1452 10.8726 11.4243 11.5583L9.27204 8.68852V5.09921C11.1406 5.31673 12.596 6.90833 12.596 8.83431ZM8.39731 5.09921V8.39695H5.09958C5.30036 6.67198 6.67234 5.29999 8.39731 5.09921Z" fill="black"/>
<path d="M14.8995 5.53977H20.4978C20.7394 5.53977 20.9352 5.34395 20.9352 5.1024C20.9352 4.86086 20.7394 4.66504 20.4978 4.66504H14.8995C14.6579 4.66504 14.4622 4.86086 14.4622 5.1024C14.4622 5.34395 14.6579 5.53977 14.8995 5.53977Z" fill="black"/>
<path d="M22.364 8.39746H17.2323C16.9907 8.39746 16.7949 8.59328 16.7949 8.83483C16.7949 9.07637 16.9907 9.27219 17.2323 9.27219H22.364C22.6056 9.27219 22.8013 9.07637 22.8013 8.83483C22.8013 8.59328 22.6056 8.39746 22.364 8.39746Z" fill="black"/>
<path d="M14.8995 9.27219H15.3661C15.6077 9.27219 15.8035 9.07637 15.8035 8.83483C15.8035 8.59328 15.6077 8.39746 15.3661 8.39746H14.8995C14.6579 8.39746 14.4622 8.59328 14.4622 8.83483C14.4622 9.07637 14.6579 9.27219 14.8995 9.27219Z" fill="black"/>
<path d="M22.364 10.2627H17.2323C16.9907 10.2627 16.7949 10.4585 16.7949 10.7001C16.7949 10.9416 16.9907 11.1374 17.2323 11.1374H22.364C22.6056 11.1374 22.8013 10.9416 22.8013 10.7001C22.8013 10.4585 22.6056 10.2627 22.364 10.2627Z" fill="black"/>
<path d="M14.8995 11.1374H15.3661C15.6077 11.1374 15.8035 10.9416 15.8035 10.7001C15.8035 10.4585 15.6077 10.2627 15.3661 10.2627H14.8995C14.6579 10.2627 14.4622 10.4585 14.4622 10.7001C14.4622 10.9416 14.6579 11.1374 14.8995 11.1374Z" fill="black"/>
<path d="M22.364 12.1299H17.2323C16.9907 12.1299 16.7949 12.3257 16.7949 12.5672C16.7949 12.8088 16.9907 13.0046 17.2323 13.0046H22.364C22.6056 13.0046 22.8013 12.8088 22.8013 12.5672C22.8013 12.3257 22.6056 12.1299 22.364 12.1299Z" fill="black"/>
<path d="M14.8995 13.0046H15.3661C15.6077 13.0046 15.8035 12.8088 15.8035 12.5672C15.8035 12.3257 15.6077 12.1299 15.3661 12.1299H14.8995C14.6579 12.1299 14.4622 12.3257 14.4622 12.5672C14.4622 12.8088 14.6579 13.0046 14.8995 13.0046Z" fill="black"/>
<path d="M14.8995 7.40598H22.3639C22.6055 7.40598 22.8013 7.21016 22.8013 6.96861C22.8013 6.72707 22.6055 6.53125 22.3639 6.53125H14.8995C14.6579 6.53125 14.4622 6.72707 14.4622 6.96861C14.4622 7.21016 14.6579 7.40598 14.8995 7.40598Z" fill="black"/>
</svg>
