<!DOCTYPE svg PUBLIC "-//W3C//DTD SVG 1.1//EN" "http://www.w3.org/Graphics/SVG/1.1/DTD/svg11.dtd">
<!-- Uploaded to: SVG Repo, www.svgrepo.com, Transformed by: SVG Repo Mixer Tools -->
<svg fill="#ffffff" height="800px" width="800px" version="1.1" id="Capa_1" xmlns="http://www.w3.org/2000/svg" xmlns:xlink="http://www.w3.org/1999/xlink" viewBox="0 0 463 463" xml:space="preserve" stroke="#ffffff">
<g id="SVGRepo_bgCarrier" stroke-width="0"/>
<g id="SVGRepo_tracerCarrier" stroke-linecap="round" stroke-linejoin="round"/>
<g id="SVGRepo_iconCarrier"> <g> <path d="M439.5,48h-416C10.542,48,0,58.542,0,71.5v256C0,340.458,10.542,351,23.5,351H160v49h-32.5c-4.143,0-7.5,3.358-7.5,7.5 s3.357,7.5,7.5,7.5h208c4.143,0,7.5-3.358,7.5-7.5s-3.357-7.5-7.5-7.5H303v-49h136.5c12.958,0,23.5-10.542,23.5-23.5v-256 C463,58.542,452.458,48,439.5,48z M288,400H175v-49h113V400z M448,327.5c0,4.687-3.813,8.5-8.5,8.5h-416 c-4.687,0-8.5-3.813-8.5-8.5v-256c0-4.687,3.813-8.5,8.5-8.5h416c4.687,0,8.5,3.813,8.5,8.5V327.5z"/> <path d="M423.5,80h-384c-4.143,0-7.5,3.358-7.5,7.5v224c0,4.142,3.357,7.5,7.5,7.5h384c4.143,0,7.5-3.358,7.5-7.5v-224 C431,83.358,427.643,80,423.5,80z M416,304H47V95h369V304z"/> <path d="M151.5,279c17.714,0,34.09-5.828,47.321-15.661c0.125-0.083,0.258-0.147,0.38-0.239c0.235-0.176,0.453-0.366,0.661-0.563 C218.777,247.991,231,225.152,231,199.5c0-43.836-35.663-79.5-79.5-79.5S72,155.664,72,199.5S107.663,279,151.5,279z M87.45,207 h60.3l36.169,48.225C174.386,260.793,163.314,264,151.5,264C118.473,264,91.18,239.043,87.45,207z M216,199.5 c0,18.367-7.73,34.953-20.092,46.711L159,197v-61.55C191.043,139.18,216,166.473,216,199.5z M144,135.45V192H87.45 C90.893,162.42,114.42,138.893,144,135.45z"/> <path d="M255.5,143h96c4.143,0,7.5-3.358,7.5-7.5s-3.357-7.5-7.5-7.5h-96c-4.143,0-7.5,3.358-7.5,7.5S251.357,143,255.5,143z"/> <path d="M383.5,192h-87.999c-4.143,0-7.5,3.358-7.5,7.5s3.357,7.5,7.5,7.5H383.5c4.143,0,7.5-3.358,7.5-7.5S387.643,192,383.5,192z "/> <path d="M255.5,207h8.001c4.143,0,7.5-3.358,7.5-7.5s-3.357-7.5-7.5-7.5H255.5c-4.143,0-7.5,3.358-7.5,7.5S251.357,207,255.5,207z"/> <path d="M383.5,224h-87.999c-4.143,0-7.5,3.358-7.5,7.5s3.357,7.5,7.5,7.5H383.5c4.143,0,7.5-3.358,7.5-7.5S387.643,224,383.5,224z "/> <path d="M255.5,239h8.001c4.143,0,7.5-3.358,7.5-7.5s-3.357-7.5-7.5-7.5H255.5c-4.143,0-7.5,3.358-7.5,7.5S251.357,239,255.5,239z"/> <path d="M383.5,256h-87.999c-4.143,0-7.5,3.358-7.5,7.5s3.357,7.5,7.5,7.5H383.5c4.143,0,7.5-3.358,7.5-7.5S387.643,256,383.5,256z "/> <path d="M255.5,271h8.001c4.143,0,7.5-3.358,7.5-7.5s-3.357-7.5-7.5-7.5H255.5c-4.143,0-7.5,3.358-7.5,7.5S251.357,271,255.5,271z"/> <path d="M255.5,175h128c4.143,0,7.5-3.358,7.5-7.5s-3.357-7.5-7.5-7.5h-128c-4.143,0-7.5,3.358-7.5,7.5S251.357,175,255.5,175z"/> </g> </g>
</svg>