<!DOCTYPE svg PUBLIC "-//W3C//DTD SVG 1.1//EN" "http://www.w3.org/Graphics/SVG/1.1/DTD/svg11.dtd">
<!-- Uploaded to: SVG Repo, www.svgrepo.com, Transformed by: SVG Repo Mixer Tools -->
<svg fill="#1A658F" width="800px" height="800px" viewBox="0 0 32 32" version="1.1" xmlns="http://www.w3.org/2000/svg">
<g id="SVGRepo_bgCarrier" stroke-width="0"/>
<g id="SVGRepo_tracerCarrier" stroke-linecap="round" stroke-linejoin="round"/>
<g id="SVGRepo_iconCarrier"> <title>phone</title> <path d="M21.999 4h-12c-1.104 0-1.999 0.896-1.999 2v20c0 1.104 0.895 2 1.999 2h12c1.105 0 2.001-0.896 2.001-2v-20c0-1.104-0.896-2-2.001-2zM13 5h5l0.062 1h-5.062v-1zM15.979 26.5c-0.552 0-1-0.447-1-1s0.448-1 1-1c0.553 0 1 0.447 1 1s-0.448 1-1 1zM21.999 23h-12l0.021-16h11.979v16z"/> </g>
</svg>