<svg width="28" height="21" viewBox="0 0 28 21" fill="none" xmlns="http://www.w3.org/2000/svg">
<path d="M4.89247 0H22.2043C24.8132 0 26.9451 1.78035 27.089 4.02357L27.0968 4.26562V16.7344C27.0968 19.009 25.0548 20.8678 22.4819 20.9932L22.2043 21H4.89247C2.28361 21 0.151673 19.2197 0.00774491 16.9764L0 16.7344V4.26562C0 1.99102 2.04197 0.132239 4.61485 0.00675228L4.89247 0ZM22.2043 1.96875H4.89247C3.51028 1.96875 2.3767 2.89683 2.2668 4.07725L2.25806 4.26562V16.7344C2.25806 17.9395 3.32253 18.9278 4.67641 19.0236L4.89247 19.0312H22.2043C23.5865 19.0312 24.7201 18.1032 24.83 16.9228L24.8387 16.7344V4.26562C24.8387 3.06052 23.7742 2.07219 22.4204 1.97636L22.2043 1.96875ZM10.6171 7.33085C10.7823 7.0427 11.1579 6.90686 11.5005 6.99407L11.6269 7.03737L18.2234 9.91303C18.3691 9.97653 18.4872 10.0795 18.5601 10.2065C18.7253 10.4947 18.6246 10.8381 18.339 11.0248L18.2234 11.087L11.6269 13.9626C11.5224 14.0082 11.4072 14.0319 11.2903 14.0319C10.9208 14.0319 10.6135 13.7998 10.5498 13.4936L10.5376 13.3757V7.62434C10.5376 7.52246 10.5648 7.42197 10.6171 7.33085Z" fill="black"/>
</svg>
