<svg width="27" height="22" viewBox="0 0 27 22" fill="none" xmlns="http://www.w3.org/2000/svg">
<path d="M24.079 1H3.15257C1.96565 1 1 1.96565 1 3.15257V18.8474C1 20.0343 1.96565 21 3.15257 21H24.079C25.266 21 26.2316 20.0343 26.2316 18.8474V3.15257C26.2316 1.96565 25.266 1 24.079 1ZM25.4142 18.8474C25.4142 19.5836 24.8152 20.1826 24.079 20.1826H3.15257C2.41637 20.1826 1.81742 19.5836 1.81742 18.8474V5.30519H25.4141V18.8474H25.4142ZM25.4142 4.48773H1.81742V3.15257C1.81742 2.41637 2.41637 1.81742 3.15257 1.81742H24.079C24.8152 1.81742 25.4142 2.41637 25.4142 3.15257V4.48773Z" fill="black" stroke="black" stroke-width="0.2"/>
<path d="M4.02453 2.74414H3.58854C3.36284 2.74414 3.17981 2.92712 3.17981 3.15287C3.17981 3.37858 3.36279 3.56161 3.58854 3.56161H4.02453C4.25023 3.56161 4.43326 3.37863 4.43326 3.15287C4.43321 2.92712 4.25023 2.74414 4.02453 2.74414Z" fill="black" stroke="black" stroke-width="0.2"/>
<path d="M5.76842 2.74414H5.33244C5.10673 2.74414 4.92371 2.92712 4.92371 3.15287C4.92371 3.37858 5.10668 3.56161 5.33244 3.56161H5.76842C5.99413 3.56161 6.17716 3.37863 6.17716 3.15287C6.17716 2.92712 5.99418 2.74414 5.76842 2.74414Z" fill="black" stroke="black" stroke-width="0.2"/>
<path d="M7.5122 2.74414H7.07621C6.85051 2.74414 6.66748 2.92712 6.66748 3.15287C6.66748 3.37858 6.85046 3.56161 7.07621 3.56161H7.5122C7.7379 3.56161 7.92093 3.37863 7.92093 3.15287C7.92093 2.92712 7.7379 2.74414 7.5122 2.74414Z" fill="black" stroke="black" stroke-width="0.2"/>
<path d="M7.61946 12.7432L10.4357 9.52458C10.5844 9.35466 10.5671 9.09648 10.3972 8.9478C10.2274 8.79917 9.9692 8.81637 9.82052 8.98629L6.76873 12.474C6.63389 12.6281 6.63389 12.8582 6.76873 13.0123L9.82052 16.5C9.90134 16.5923 10.0145 16.6396 10.1283 16.6396C10.2238 16.6396 10.3197 16.6063 10.3972 16.5385C10.5671 16.3898 10.5843 16.1317 10.4357 15.9618L7.61946 12.7432Z" fill="black" stroke="black" stroke-width="0.2"/>
<path d="M20.463 12.4749L17.4112 8.98723C17.2625 8.81736 17.0043 8.80016 16.8345 8.94874C16.6646 9.09742 16.6474 9.3556 16.796 9.52547L19.6122 12.7441L16.796 15.9627C16.6473 16.1326 16.6645 16.3907 16.8345 16.5394C16.912 16.6073 17.0079 16.6405 17.1034 16.6405C17.2172 16.6405 17.3304 16.5932 17.4112 16.5009L20.463 13.0132C20.5978 12.8591 20.5978 12.629 20.463 12.4749Z" fill="black" stroke="black" stroke-width="0.2"/>
<path d="M15.5183 8.44325C15.3102 8.35568 15.0706 8.45335 14.983 8.66127L11.4953 16.9447C11.4077 17.1527 11.5053 17.3923 11.7133 17.48C11.7651 17.5018 11.8188 17.5121 11.8717 17.5121C12.0312 17.5121 12.1828 17.4181 12.2486 17.2619L15.7363 8.97858C15.824 8.77052 15.7263 8.53082 15.5183 8.44325Z" fill="black" stroke="black" stroke-width="0.2"/>
</svg>
